<svg width="1110" height="136" viewBox="0 0 1110 136" fill="none" xmlns="http://www.w3.org/2000/svg">
<path fill-rule="evenodd" clip-rule="evenodd" d="M325.768 4.67302L15.4061 130.956H350V136H0V2.33651H5.03597V126.745L114.718 0.679649L118.515 3.99335L11.3544 127.16L323.872 0L325.768 4.67302Z" fill="white"/>
<circle cx="390" cy="38" r="10" fill="#D35D5D"/>
<circle cx="507" cy="48" r="10" fill="#D35D5D"/>
<circle cx="574" cy="126" r="10" fill="#D35D5D"/>
<circle cx="288" cy="92" r="10" fill="#D35D5D"/>
<circle cx="153" cy="10" r="10" fill="#D35D5D"/>
<circle cx="627" cy="10" r="10" fill="#D35D5D"/>
<circle cx="838" cy="92" r="10" fill="#D35D5D"/>
<circle cx="10" cy="10" r="10" transform="matrix(1 0 0 -1 888 58)" fill="#D35D5D"/>
<circle cx="10" cy="10" r="10" transform="matrix(1 0 0 -1 984 30)" fill="#D35D5D"/>
<circle cx="10" cy="10" r="10" transform="matrix(1 0 0 -1 1090 50)" fill="#D35D5D"/>
<circle cx="10" cy="10" r="10" transform="matrix(1 0 0 -1 1038 136)" fill="#D35D5D"/>
<circle cx="10" cy="10" r="10" transform="matrix(1 0 0 -1 778 20)" fill="#D35D5D"/>
</svg>
